<mxfile host="65bd71144e">
    <diagram id="_vay8Y5pAFVPlpuN3CmY" name="Page-1">
        <mxGraphModel dx="1106" dy="513" grid="0" gridSize="10" guides="1" tooltips="1" connect="1" arrows="1" fold="1" page="1" pageScale="1" pageWidth="827" pageHeight="1169" math="0" shadow="0">
            <root>
                <mxCell id="0"/>
                <mxCell id="1" parent="0"/>
                <mxCell id="16" style="edgeStyle=none;html=1;entryX=0.5;entryY=0;entryDx=0;entryDy=0;" edge="1" parent="1" source="2" target="3">
                    <mxGeometry relative="1" as="geometry"/>
                </mxCell>
                <mxCell id="2" value="UI" style="rounded=0;whiteSpace=wrap;html=1;" vertex="1" parent="1">
                    <mxGeometry x="354" y="40" width="120" height="60" as="geometry"/>
                </mxCell>
                <mxCell id="17" style="edgeStyle=none;html=1;entryX=0.5;entryY=0;entryDx=0;entryDy=0;" edge="1" parent="1" source="3" target="5">
                    <mxGeometry relative="1" as="geometry"/>
                </mxCell>
                <mxCell id="3" value="TodoController" style="rounded=0;whiteSpace=wrap;html=1;" vertex="1" parent="1">
                    <mxGeometry x="354" y="140" width="120" height="60" as="geometry"/>
                </mxCell>
                <mxCell id="21" style="edgeStyle=none;html=1;entryX=0;entryY=0.5;entryDx=0;entryDy=0;" edge="1" parent="1" source="5" target="13">
                    <mxGeometry relative="1" as="geometry">
                        <Array as="points">
                            <mxPoint x="414" y="410"/>
                        </Array>
                    </mxGeometry>
                </mxCell>
                <mxCell id="22" style="edgeStyle=none;html=1;entryX=1;entryY=0.5;entryDx=0;entryDy=0;" edge="1" parent="1" source="5" target="10">
                    <mxGeometry relative="1" as="geometry">
                        <Array as="points">
                            <mxPoint x="414" y="410"/>
                        </Array>
                    </mxGeometry>
                </mxCell>
                <mxCell id="5" value="ICreateTodoUseCase" style="rounded=1;whiteSpace=wrap;html=1;glass=0;shadow=0;dashed=1;" vertex="1" parent="1">
                    <mxGeometry x="344" y="260" width="140" height="60" as="geometry"/>
                </mxCell>
                <mxCell id="7" value="ITodoPresenter" style="rounded=1;whiteSpace=wrap;html=1;glass=0;shadow=0;dashed=1;" vertex="1" parent="1">
                    <mxGeometry x="600" y="200" width="140" height="60" as="geometry"/>
                </mxCell>
                <mxCell id="23" style="edgeStyle=none;html=1;entryX=0.5;entryY=0;entryDx=0;entryDy=0;" edge="1" parent="1" source="10" target="15">
                    <mxGeometry relative="1" as="geometry"/>
                </mxCell>
                <mxCell id="10" value="ITodoRepository" style="rounded=1;whiteSpace=wrap;html=1;glass=0;shadow=0;dashed=1;" vertex="1" parent="1">
                    <mxGeometry x="220" y="380" width="140" height="60" as="geometry"/>
                </mxCell>
                <mxCell id="13" value="ITodoEntity" style="rounded=1;whiteSpace=wrap;html=1;glass=0;shadow=0;dashed=1;" vertex="1" parent="1">
                    <mxGeometry x="474" y="380" width="140" height="60" as="geometry"/>
                </mxCell>
                <mxCell id="15" value="IHttp" style="rounded=1;whiteSpace=wrap;html=1;glass=0;shadow=0;dashed=1;" vertex="1" parent="1">
                    <mxGeometry x="220" y="480" width="140" height="60" as="geometry"/>
                </mxCell>
            </root>
        </mxGraphModel>
    </diagram>
</mxfile>
